<?xml version="1.0" encoding="UTF-8"?>
<svg viewBox="0 0 206 231" xmlns="http://www.w3.org/2000/svg">
<path d="m143.14 84c0 12.15-9.85 22-22 22-12.151 0-22-9.8497-22-22s9.8494-22 22-22c12.15 0 22 9.8497 22 22z" fill="#FFC131"/>
<ellipse transform="rotate(180 84.143 147)" cx="84.143" cy="147" rx="22" ry="22" fill="#24C8DB"/>
<path d="m166.74 154.55c-8.878 5.738-18.715 9.721-28.981 11.793 2.101-6.059 3.243-12.567 3.243-19.341 0-2.457-0.15-4.879-0.442-7.257 4.417-1.539 8.657-3.604 12.625-6.168 9.547-6.171 17.109-14.967 21.778-25.331 4.669-10.364 6.246-21.856 4.541-33.095-1.704-11.239-6.618-21.747-14.15-30.26-7.532-8.5139-17.362-14.672-28.31-17.734-10.947-3.062-22.546-2.8978-33.402 0.4728-10.856 3.3706-20.508 9.8043-27.796 18.528-0.9335 1.1174-1.8231 2.2663-2.6677 3.444-11.247 1.2495-22.14 4.4325-32.213 9.3563 3.2788-10.497 8.6024-20.296 15.716-28.811 10.372-12.414 24.107-21.57 39.556-26.367 15.45-4.7966 31.955-5.0303 47.534-0.67288s29.568 13.12 40.287 25.236 17.711 27.069 20.137 43.063c2.426 15.994 0.181 32.348-6.463 47.097s-17.406 27.266-30.992 36.047zm-124.77-80.273 20.593 2.5292c0.4902-3.9912 1.3844-7.9024 2.6581-11.677-8.1673 1.8742-16.005 4.9596-23.251 9.1476z" clip-rule="evenodd" fill="#FFC131" fill-rule="evenodd"/>
<path d="m38.404 76.452c8.9448-5.781 18.863-9.7807 29.213-11.839-2.3397 6.3537-3.6171 13.221-3.6171 20.387 0 2.1433 0.1143 4.2599 0.3371 6.3441-4.3278 1.529-8.4838 3.565-12.377 6.0814-9.5471 6.1704-17.109 14.966-21.778 25.33-4.669 10.364-6.2459 21.856-4.5413 33.095s6.6181 21.747 14.15 30.261c7.5321 8.514 17.362 14.672 28.31 17.734 10.947 3.061 22.546 2.897 33.402-0.473 10.857-3.371 20.509-9.805 27.797-18.528 0.938-1.123 1.832-2.278 2.68-3.462 11.256-1.269 22.153-4.473 32.226-9.421-3.276 10.528-8.609 20.357-15.741 28.894-10.372 12.414-24.107 21.57-39.557 26.366-15.449 4.797-31.955 5.031-47.533 0.673-15.579-4.357-29.568-13.12-40.287-25.236s-17.711-27.069-20.137-43.063c-2.4257-15.994-0.18168-32.348 6.4625-47.097 6.6442-14.749 17.406-27.266 30.992-36.047zm124.66 80.259-0.324 0.186 0.324-0.186z" clip-rule="evenodd" fill="#24C8DB" fill-rule="evenodd"/>
</svg>
